<?xml version="1.0" standalone="no"?>
<!DOCTYPE svg PUBLIC "-//W3C//DTD SVG 20010904//EN"
 "http://www.w3.org/TR/2001/REC-SVG-20010904/DTD/svg10.dtd">
<svg xmlns="http://www.w3.org/2000/svg" width="16" height="13.438" viewBox="0 0 16 13.438">
  <g id="Group_38" data-name="Group 38" transform="translate(0 0)">
    <path id="Path_1" data-name="Path 1" d="M-2716.923,53.79c.319-.385.581-.811.865-1.221a.624.624,0,0,1,.59-.314c.469.021.94.016,1.409,0a.5.5,0,0,1,.531.353.441.441,0,0,1-.076.4c-.356.536-.714,1.07-1.062,1.612a.269.269,0,0,1-.143.133q-.839,1.261-1.678,2.521-.207.311-.411.625a.474.474,0,0,1-.426.234c-.555,0-1.11,0-1.664-.006a.392.392,0,0,1-.434-.445q0-3.74,0-7.481c0-.059-.016-.123.027-.176.073.059.06.144.06.22,0,2.337.008,4.673,0,7.01,0,0,0,.009.006.011.755-1.121,1.521-2.235,2.276-3.357C-2717.022,53.858-2716.99,53.8-2716.923,53.79Z" transform="translate(2722.864 -47.208)" fill="#4fc2f6"/>
    <path id="Path_2" data-name="Path 2" d="M-2717.007,49.853l-1.466,2.177q-.449.665-.9,1.329c-.022.034-.05.065-.1.131v-.232q0-3.476,0-6.952c0-.073,0-.146-.005-.219a.394.394,0,0,1,.432-.286c.505,0,1.011,0,1.516,0,.387,0,.518.128.518.51q0,1.653,0,3.306C-2717.01,49.7-2717.008,49.774-2717.007,49.853Z" transform="translate(2722.914 -43.272)" fill="#4285f3"/>
    <path id="Path_3" data-name="Path 3" d="M-2647.041,87.826a.594.594,0,0,1,.014.305c-.053.244-.139.355-.382.365-.579.024-1.158.023-1.737,0a.424.424,0,0,1-.352-.223q-1.016-1.53-2.037-3.057c-.023-.035-.052-.067-.077-.1.357-.543.709-1.089,1.074-1.626a1.105,1.105,0,0,0,.208-.515l.742,1.083A37.606,37.606,0,0,1-2647.041,87.826Z" transform="translate(2659.667 -77.575)" fill="#1ce8b5"/>
    <path id="Path_4" data-name="Path 4" d="M-2592.423,8.972a.233.233,0,0,0-.179-.243c-.044-.045-.1-.031-.155-.031q-1.763,0-3.525,0c-.23,0-.335.1-.339.335,0,.341,0,.682,0,1.023,0,.253.1.348.359.348l1.973,0a.336.336,0,0,1,.186.326q0,4.688,0,9.375a.323.323,0,0,1-.147.311.541.541,0,0,1-.216.024q-.913,0-1.826,0c-.215,0-.32.089-.325.3-.009.365-.008.73,0,1.1a.254.254,0,0,0,.268.282c.712,0,1.424,0,2.136,0l1.391.006c.344,0,.4-.059.4-.4q0-6.306,0-12.611C-2592.422,9.069-2592.419,9.02-2592.423,8.972Z" transform="translate(2608.421 -8.693)" fill="#12c3ab"/>
    <path id="Path_5" data-name="Path 5" d="M-2747.9,183a.432.432,0,0,1,.091-.055c.309-.093.309-.092.309-.413s0-.666,0-1a.379.379,0,0,1,.037-.211c.663,0,1.327-.007,1.992-.005a.257.257,0,0,1,.278.288c0,.372,0,.743,0,1.115a.254.254,0,0,1-.277.286C-2746.285,183.007-2747.095,183-2747.9,183Z" transform="translate(2749.407 -169.569)" fill="#4788f3"/>
    <path id="Path_6" data-name="Path 6" d="M-2765.77,8.969a.247.247,0,0,0-.178-.279h0c-.057-.052-.128-.03-.192-.03h-3.441c-.318,0-.4.079-.4.4V21.69a.948.948,0,0,0,0,.165.245.245,0,0,0,.253.237c.415,0,.83,0,1.245-.005a.482.482,0,0,1,.124-.029c.265-.031.326-.1.331-.356,0-.213.006-.426,0-.639a3.611,3.611,0,0,0-.018-.654.346.346,0,0,1-.251-.389q.005-4.641,0-9.283c0-.072.012-.145.018-.217.06-.164.2-.172.34-.173.615,0,1.229,0,1.844,0,.231,0,.315-.088.316-.32C-2765.77,9.675-2765.773,9.322-2765.77,8.969Z" transform="translate(2769.981 -8.655)" fill="#4788f3"/>
    <path id="Path_7" data-name="Path 7" d="M-2621.277,48.171c0-.665,0-1.329.007-1.994a.393.393,0,0,1,.4-.412q.851-.011,1.7,0a.384.384,0,0,1,.388.4q0,3.633,0,7.266a.414.414,0,0,1-.007.054c-.091,0-.116-.08-.155-.137q-1.123-1.653-2.236-3.313a.605.605,0,0,1-.116-.388C-2621.273,49.156-2621.3,48.663-2621.277,48.171Z" transform="translate(2631.412 -43.235)" fill="#00bea4"/>
  </g>
</svg>